<?xml version="1.0" standalone="no"?><!DOCTYPE svg PUBLIC "-//W3C//DTD SVG 1.1//EN" "http://www.w3.org/Graphics/SVG/1.1/DTD/svg11.dtd"><svg t="1692339369852" class="icon" viewBox="0 0 1024 1024" version="1.1" xmlns="http://www.w3.org/2000/svg" p-id="15927" xmlns:xlink="http://www.w3.org/1999/xlink" width="16" height="16"><path d="M831.903143 415.939071c0 91.786555-29.795635 176.574135-79.988283 245.364058l253.162915 253.362887c24.996338 24.996338 24.996338 65.590392 0 90.58673s-65.590392 24.996338-90.58673 0L661.328129 751.88986c-68.789923 50.392618-153.577503 79.988283-245.364058 79.988283C186.197729 831.878143 0.025 645.705414 0.025 415.939071S186.197729 0 415.964071 0s415.939071 186.172729 415.939072 415.939071zM415.964071 703.89689a287.957819 287.957819 0 1 0 0-575.915637 287.957819 287.957819 0 1 0 0 575.915637z" p-id="15928" fill="#337ab7"></path></svg>