<?xml version="1.0" standalone="no"?><!DOCTYPE svg PUBLIC "-//W3C//DTD SVG 1.1//EN" "http://www.w3.org/Graphics/SVG/1.1/DTD/svg11.dtd"><svg t="1708425063725" class="icon" viewBox="0 0 1024 1024" version="1.1" xmlns="http://www.w3.org/2000/svg" p-id="4241" width="16" height="16" xmlns:xlink="http://www.w3.org/1999/xlink"><path d="M797.257143 819.2c-21.942857 0-36.571429-14.628571-36.571429-36.571429s14.628571-36.571429 36.571429-36.571428c29.257143 0 51.2-21.942857 51.2-51.2s-21.942857-51.2-51.2-51.2H680.228571c-29.257143 0-51.2 21.942857-51.2 51.2s21.942857 51.2 51.2 51.2c21.942857 0 36.571429 14.628571 36.571429 36.571428s-14.628571 36.571429-36.571429 36.571429c-65.828571 0-124.342857-58.514286-124.342857-124.342857s58.514286-124.342857 124.342857-124.342857H804.571429c65.828571 0 124.342857 58.514286 124.342857 124.342857s-58.514286 124.342857-131.657143 124.342857z" fill="#333333" p-id="4242"></path><path d="M877.714286 1024H599.771429c-73.142857 0-124.342857-58.514286-124.342858-124.342857V877.714286c0-73.142857 58.514286-124.342857 124.342858-124.342857h80.457142c21.942857 0 36.571429 14.628571 36.571429 36.571428s-14.628571 36.571429-36.571429 36.571429H599.771429c-29.257143 0-58.514286 29.257143-58.514286 58.514285v14.628572c0 29.257143 29.257143 58.514286 58.514286 58.514286H877.714286c29.257143 0 58.514286-29.257143 58.514285-58.514286V877.714286c0-29.257143-29.257143-58.514286-58.514285-58.514286l-51.2-7.314286c-21.942857 0-29.257143-14.628571-29.257143-36.571428s21.942857-29.257143 36.571428-29.257143l51.2 7.314286c65.828571 0 124.342857 58.514286 124.342858 124.342857v14.628571c-7.314286 73.142857-65.828571 131.657143-131.657143 131.657143z" fill="#333333" p-id="4243"></path><path d="M387.657143 1024H197.485714C87.771429 1024 0 936.228571 0 833.828571V190.171429C0 87.771429 87.771429 0 197.485714 0h636.342857C936.228571 0 1024 87.771429 1024 190.171429V438.857143c0 21.942857-14.628571 36.571429-36.571429 36.571428S950.857143 460.8 950.857143 438.857143V190.171429c0-65.828571-51.2-117.028571-117.028572-117.028572H197.485714c-65.828571 0-117.028571 51.2-117.028571 117.028572v636.342857c0 65.828571 51.2 117.028571 117.028571 117.028571h190.171429c21.942857 0 36.571429 14.628571 36.571428 36.571429 0 29.257143-14.628571 43.885714-36.571428 43.885714z" fill="#333333" p-id="4244"></path><path d="M650.971429 358.4h-438.857143c-21.942857 0-36.571429-14.628571-36.571429-36.571429s14.628571-36.571429 36.571429-36.571428h438.857143c21.942857 0 36.571429 14.628571 36.571428 36.571428s-14.628571 36.571429-36.571428 36.571429z" fill="#333333" p-id="4245"></path><path d="M526.628571 512h-292.571428c-21.942857 0-36.571429-21.942857-36.571429-36.571429s14.628571-36.571429 36.571429-36.571428h292.571428c21.942857 0 36.571429 14.628571 36.571429 36.571428s-21.942857 36.571429-36.571429 36.571429z" fill="#333333" p-id="4246"></path></svg>