<?xml version="1.0" standalone="no"?><!DOCTYPE svg PUBLIC "-//W3C//DTD SVG 1.1//EN" "http://www.w3.org/Graphics/SVG/1.1/DTD/svg11.dtd"><svg t="1708425250866" class="icon" viewBox="0 0 1024 1024" version="1.1" xmlns="http://www.w3.org/2000/svg" p-id="7276" xmlns:xlink="http://www.w3.org/1999/xlink" width="16" height="16"><path d="M915.017143 540.013714l-260.827429-0.073143v-55.954285h260.900572l-92.306286-90.843429 40.228571-39.570286L1024 511.926857l-40.228571 39.643429-130.413715 128.365714-40.228571-39.570286 102.034286-100.425143z m-806.034286 0l101.888 100.352-40.228571 39.570286L40.228571 551.570286 0 512l160.914286-158.354286 40.228571 39.570286-92.16 90.843429h260.827429v56.027428H108.982857z m90.112-273.188571h-56.905143V64h341.357715v896H142.189714v-180.882286h56.905143v124.854857h227.547429V120.027429h-227.474286v146.797714z m625.810286 0V120.027429H597.357714v783.945142h227.474286v-124.854857h56.978286v180.882286H540.452571V64h341.357715v202.825143h-56.905143z" p-id="7277" fill="#2c2c2c"></path></svg>